<svg class="icon" style="width: 1em;height: 1em;vertical-align: middle;fill: currentColor;overflow: hidden;" viewBox="0 0 1024 1024" version="1.1" xmlns="http://www.w3.org/2000/svg" p-id="2916"><path d="M0 0h1024v1024H0z" fill="#FFFFFF" p-id="2917"></path><path d="M788.384 405.568l23.872-21.312-0.16-0.16-0.16-0.192-23.552 21.664z m86.528 92.736l22.784-22.464-22.784 22.464z m6.656 98.784L857.472 576l24.096 21.088z m-36.896 42.144l24.096 21.056-24.096-21.088zM652.192 672v-32h-1.632l-1.632 0.16 3.264 31.84z m-51.776 271.232a32 32 0 0 0 56.256-30.464l-56.256 30.464z m-72-665.28l-30.4 9.92 5.12 15.776 15.872 4.896 9.44-30.592zM510.272 96h32a32 32 0 0 0-44.544-29.44l12.544 29.44zM96.128 816.032a32 32 0 0 0 63.744 5.44l-63.744-5.44z m546.656-112.16a32 32 0 1 0-5.568-63.744l5.568 63.744z m-167.36-112.32a32 32 0 0 0-54.848 32.896l54.848-32.928z m312.96-185.984l-23.84 21.344 0.128 0.16 0.416 0.448 1.6 1.76a2600.704 2600.704 0 0 0 26.496 29.184c16.768 18.24 38.688 41.728 58.944 62.272l45.568-44.896a2513.984 2513.984 0 0 1-57.376-60.672 3788.48 3788.48 0 0 1-20.256-22.208l-5.76-6.4-1.536-1.728-0.384-0.416a3.808 3.808 0 0 1-0.096-0.128l-23.904 21.28zM857.504 576l-36.896 42.144 48.16 42.144 36.864-42.144L857.472 576z m-85.056 64H652.16v64h120.256v-64z m-123.52 0.16c-47.84 4.928-114.112 64.352-87.84 169.536l62.08-15.52c-17.376-69.632 25.504-89.664 32.288-90.336l-6.528-63.68z m-87.84 169.536c11.008 44.032 19.488 74.656 25.664 95.168 5.76 19.04 10.24 32.128 13.664 38.4l56.256-30.496c0.352 0.64-2.4-5.6-8.64-26.336a2077.888 2077.888 0 0 1-24.832-92.256l-62.08 15.52zM519.04 308.544c26.688 8.224 50.08 12.992 70.592 17.184 20.864 4.288 38.08 7.872 55.328 13.76 32.704 11.2 68.384 31.84 119.936 87.776l47.04-43.36c-56.832-61.696-101.12-89.472-146.24-104.96-21.696-7.424-42.88-11.744-63.2-15.904-20.672-4.256-41.248-8.448-64.608-15.68l-18.88 61.184zM478.24 96c0 66.144-0.288 130.272 19.776 191.872l60.864-19.84c-16.352-50.176-16.64-103.712-16.64-172.032h-64zM159.872 821.44c8.96-105.12 48.672-258.88 113.184-397.6 65.216-140.288 151.84-256.704 249.728-298.4l-25.088-58.88c-120.928 51.52-216.128 187.2-282.688 330.304-67.264 144.672-109.248 305.696-118.88 419.2l63.744 5.376z m660.736-203.296a64 64 0 0 1-48.16 21.856v64a128 128 0 0 0 96.32-43.712l-48.16-42.144z m31.52-97.408c-0.064-0.032 0.512 0.544 1.408 2.176 0.896 1.568 1.888 3.744 2.848 6.56 1.92 5.696 3.392 12.8 3.968 20.256 0.576 7.488 0.192 14.368-0.864 19.68-1.152 5.76-2.56 7.232-2.016 6.592l48.16 42.144c9.632-11.008 14.304-24.608 16.64-36.224 2.4-12.096 2.816-24.96 1.92-37.12a147.392 147.392 0 0 0-7.296-36.128c-3.776-11.008-9.728-23.264-19.2-32.832l-45.568 44.896z m-214.912 119.36c-34.464 3.008-65.248 6.272-93.568 0.64-25.92-5.12-49.344-17.728-68.224-49.216l-54.848 32.96c29.12 48.512 68.864 70.752 110.592 79.04 39.264 7.808 80.512 3.072 111.616 0.352l-5.568-63.744z" fill="rgba(0,0,0,1)" p-id="2918"></path></svg>